<mxfile host="Electron" modified="2024-07-14T22:06:40.563Z" agent="Mozilla/5.0 (Windows NT 10.0; Win64; x64) AppleWebKit/537.36 (KHTML, like Gecko) draw.io/24.6.4 Chrome/124.0.6367.207 Electron/30.0.6 Safari/537.36" etag="hwigfyRhJmXLPPOGNGBW" version="24.6.4" type="device" pages="3">
  <diagram name="Register" id="yMp4Iny8yhXQXn8x2ECQ">
    <mxGraphModel dx="493" dy="311" grid="0" gridSize="10" guides="1" tooltips="1" connect="1" arrows="1" fold="1" page="1" pageScale="1" pageWidth="1654" pageHeight="1169" math="0" shadow="0">
      <root>
        <mxCell id="0" />
        <mxCell id="1" parent="0" />
        <mxCell id="mkdkeC1Thzjb7Dv0HHSO-1" value="React App" style="shape=umlLifeline;perimeter=lifelinePerimeter;whiteSpace=wrap;html=1;container=1;dropTarget=0;collapsible=0;recursiveResize=0;outlineConnect=0;portConstraint=eastwest;newEdgeStyle={&quot;curved&quot;:0,&quot;rounded&quot;:0};" parent="1" vertex="1">
          <mxGeometry x="360" y="40" width="120" height="470" as="geometry" />
        </mxCell>
        <mxCell id="mkdkeC1Thzjb7Dv0HHSO-10" value="" style="html=1;points=[[0,0,0,0,5],[0,1,0,0,-5],[1,0,0,0,5],[1,1,0,0,-5]];perimeter=orthogonalPerimeter;outlineConnect=0;targetShapes=umlLifeline;portConstraint=eastwest;newEdgeStyle={&quot;curved&quot;:0,&quot;rounded&quot;:0};" parent="mkdkeC1Thzjb7Dv0HHSO-1" vertex="1">
          <mxGeometry x="55" y="80" width="10" height="370" as="geometry" />
        </mxCell>
        <mxCell id="mkdkeC1Thzjb7Dv0HHSO-3" value="ExpressServer" style="shape=umlLifeline;perimeter=lifelinePerimeter;whiteSpace=wrap;html=1;container=1;dropTarget=0;collapsible=0;recursiveResize=0;outlineConnect=0;portConstraint=eastwest;newEdgeStyle={&quot;curved&quot;:0,&quot;rounded&quot;:0};" parent="1" vertex="1">
          <mxGeometry x="640" y="40" width="120" height="470" as="geometry" />
        </mxCell>
        <mxCell id="mkdkeC1Thzjb7Dv0HHSO-11" value="" style="html=1;points=[[0,0,0,0,5],[0,1,0,0,-5],[1,0,0,0,5],[1,1,0,0,-5]];perimeter=orthogonalPerimeter;outlineConnect=0;targetShapes=umlLifeline;portConstraint=eastwest;newEdgeStyle={&quot;curved&quot;:0,&quot;rounded&quot;:0};" parent="mkdkeC1Thzjb7Dv0HHSO-3" vertex="1">
          <mxGeometry x="55" y="80" width="10" height="370" as="geometry" />
        </mxCell>
        <mxCell id="mkdkeC1Thzjb7Dv0HHSO-5" value="MongoDB" style="shape=umlLifeline;perimeter=lifelinePerimeter;whiteSpace=wrap;html=1;container=1;dropTarget=0;collapsible=0;recursiveResize=0;outlineConnect=0;portConstraint=eastwest;newEdgeStyle={&quot;curved&quot;:0,&quot;rounded&quot;:0};" parent="1" vertex="1">
          <mxGeometry x="950" y="40" width="120" height="470" as="geometry" />
        </mxCell>
        <mxCell id="mkdkeC1Thzjb7Dv0HHSO-12" value="" style="html=1;points=[[0,0,0,0,5],[0,1,0,0,-5],[1,0,0,0,5],[1,1,0,0,-5]];perimeter=orthogonalPerimeter;outlineConnect=0;targetShapes=umlLifeline;portConstraint=eastwest;newEdgeStyle={&quot;curved&quot;:0,&quot;rounded&quot;:0};" parent="mkdkeC1Thzjb7Dv0HHSO-5" vertex="1">
          <mxGeometry x="55" y="80" width="10" height="370" as="geometry" />
        </mxCell>
        <mxCell id="mkdkeC1Thzjb7Dv0HHSO-13" value="Enter User information" style="html=1;verticalAlign=bottom;endArrow=block;curved=0;rounded=0;" parent="1" source="mkdkeC1Thzjb7Dv0HHSO-6" edge="1">
          <mxGeometry width="80" relative="1" as="geometry">
            <mxPoint x="160" y="130" as="sourcePoint" />
            <mxPoint x="410" y="130" as="targetPoint" />
          </mxGeometry>
        </mxCell>
        <mxCell id="mkdkeC1Thzjb7Dv0HHSO-14" value="Send request to Save data into the system" style="html=1;verticalAlign=bottom;endArrow=block;curved=0;rounded=0;" parent="1" edge="1">
          <mxGeometry width="80" relative="1" as="geometry">
            <mxPoint x="425" y="140" as="sourcePoint" />
            <mxPoint x="695" y="140" as="targetPoint" />
          </mxGeometry>
        </mxCell>
        <mxCell id="mkdkeC1Thzjb7Dv0HHSO-15" value="Save to Mongoose" style="html=1;verticalAlign=bottom;endArrow=block;curved=0;rounded=0;" parent="1" edge="1">
          <mxGeometry width="80" relative="1" as="geometry">
            <mxPoint x="705" y="150" as="sourcePoint" />
            <mxPoint x="1005" y="150" as="targetPoint" />
          </mxGeometry>
        </mxCell>
        <mxCell id="mkdkeC1Thzjb7Dv0HHSO-16" value="Success" style="shape=umlFrame;whiteSpace=wrap;html=1;pointerEvents=0;" parent="1" vertex="1">
          <mxGeometry x="90" y="390" width="970" height="80" as="geometry" />
        </mxCell>
        <mxCell id="mkdkeC1Thzjb7Dv0HHSO-17" value="Invalid User&amp;nbsp;" style="html=1;verticalAlign=bottom;endArrow=open;dashed=1;endSize=8;curved=0;rounded=0;" parent="1" edge="1">
          <mxGeometry relative="1" as="geometry">
            <mxPoint x="1005" y="200" as="sourcePoint" />
            <mxPoint x="705" y="200" as="targetPoint" />
            <mxPoint as="offset" />
          </mxGeometry>
        </mxCell>
        <mxCell id="mkdkeC1Thzjb7Dv0HHSO-18" value="Return 400 message&amp;nbsp;" style="html=1;verticalAlign=bottom;endArrow=open;dashed=1;endSize=8;curved=0;rounded=0;" parent="1" edge="1">
          <mxGeometry relative="1" as="geometry">
            <mxPoint x="695" y="214.5" as="sourcePoint" />
            <mxPoint x="425" y="214.5" as="targetPoint" />
            <mxPoint as="offset" />
          </mxGeometry>
        </mxCell>
        <mxCell id="mkdkeC1Thzjb7Dv0HHSO-19" value="Show message &quot;Invalid User &quot;" style="html=1;verticalAlign=bottom;endArrow=open;dashed=1;endSize=8;curved=0;rounded=0;" parent="1" edge="1">
          <mxGeometry relative="1" as="geometry">
            <mxPoint x="415" y="230" as="sourcePoint" />
            <mxPoint x="165" y="230" as="targetPoint" />
            <mxPoint as="offset" />
          </mxGeometry>
        </mxCell>
        <mxCell id="mkdkeC1Thzjb7Dv0HHSO-20" value="Error" style="shape=umlFrame;whiteSpace=wrap;html=1;pointerEvents=0;" parent="1" vertex="1">
          <mxGeometry x="90" y="170" width="970" height="90" as="geometry" />
        </mxCell>
        <mxCell id="mkdkeC1Thzjb7Dv0HHSO-21" value="Return and save user data" style="html=1;verticalAlign=bottom;endArrow=open;dashed=1;endSize=8;curved=0;rounded=0;" parent="1" edge="1">
          <mxGeometry relative="1" as="geometry">
            <mxPoint x="1000" y="420" as="sourcePoint" />
            <mxPoint x="705" y="420" as="targetPoint" />
            <mxPoint as="offset" />
          </mxGeometry>
        </mxCell>
        <mxCell id="mkdkeC1Thzjb7Dv0HHSO-22" value="" style="html=1;verticalAlign=bottom;endArrow=open;dashed=1;endSize=8;curved=0;rounded=0;" parent="1" edge="1">
          <mxGeometry x="0.0038" relative="1" as="geometry">
            <mxPoint x="690" y="435" as="sourcePoint" />
            <mxPoint x="425" y="435" as="targetPoint" />
            <mxPoint as="offset" />
          </mxGeometry>
        </mxCell>
        <mxCell id="mkdkeC1Thzjb7Dv0HHSO-23" value="" style="html=1;verticalAlign=bottom;endArrow=open;dashed=1;endSize=8;curved=0;rounded=0;" parent="1" edge="1">
          <mxGeometry x="0.0038" relative="1" as="geometry">
            <mxPoint x="415" y="450" as="sourcePoint" />
            <mxPoint x="165" y="450" as="targetPoint" />
            <mxPoint as="offset" />
          </mxGeometry>
        </mxCell>
        <mxCell id="mkdkeC1Thzjb7Dv0HHSO-29" value="User already exists" style="html=1;verticalAlign=bottom;endArrow=open;dashed=1;endSize=8;curved=0;rounded=0;" parent="1" edge="1">
          <mxGeometry relative="1" as="geometry">
            <mxPoint x="1005" y="310" as="sourcePoint" />
            <mxPoint x="705" y="310" as="targetPoint" />
            <mxPoint as="offset" />
          </mxGeometry>
        </mxCell>
        <mxCell id="mkdkeC1Thzjb7Dv0HHSO-30" value="Return 400 message&amp;nbsp;" style="html=1;verticalAlign=bottom;endArrow=open;dashed=1;endSize=8;curved=0;rounded=0;" parent="1" edge="1">
          <mxGeometry relative="1" as="geometry">
            <mxPoint x="695" y="324.5" as="sourcePoint" />
            <mxPoint x="425" y="324.5" as="targetPoint" />
            <mxPoint as="offset" />
          </mxGeometry>
        </mxCell>
        <mxCell id="mkdkeC1Thzjb7Dv0HHSO-31" value="Show message &quot;User already exists&quot;" style="html=1;verticalAlign=bottom;endArrow=open;dashed=1;endSize=8;curved=0;rounded=0;" parent="1" edge="1">
          <mxGeometry relative="1" as="geometry">
            <mxPoint x="415" y="340" as="sourcePoint" />
            <mxPoint x="165" y="340" as="targetPoint" />
            <mxPoint as="offset" />
          </mxGeometry>
        </mxCell>
        <mxCell id="mkdkeC1Thzjb7Dv0HHSO-32" value="Error" style="shape=umlFrame;whiteSpace=wrap;html=1;pointerEvents=0;" parent="1" vertex="1">
          <mxGeometry x="90" y="280" width="970" height="90" as="geometry" />
        </mxCell>
        <mxCell id="mkdkeC1Thzjb7Dv0HHSO-33" value="Show new user&amp;nbsp;" style="text;html=1;align=center;verticalAlign=middle;resizable=0;points=[];autosize=1;strokeColor=none;fillColor=none;" parent="1" vertex="1">
          <mxGeometry x="230" y="415" width="110" height="30" as="geometry" />
        </mxCell>
        <mxCell id="mkdkeC1Thzjb7Dv0HHSO-34" value="Return Data" style="text;html=1;align=center;verticalAlign=middle;resizable=0;points=[];autosize=1;strokeColor=none;fillColor=none;" parent="1" vertex="1">
          <mxGeometry x="520" y="410" width="90" height="30" as="geometry" />
        </mxCell>
        <mxCell id="kjJfZWDyVKk-EB3Ob07S-21" value="" style="group" parent="1" vertex="1" connectable="0">
          <mxGeometry x="151" y="40" width="18" height="474" as="geometry" />
        </mxCell>
        <mxCell id="kjJfZWDyVKk-EB3Ob07S-12" value="" style="endArrow=none;dashed=1;html=1;rounded=0;" parent="kjJfZWDyVKk-EB3Ob07S-21" edge="1">
          <mxGeometry width="50" height="50" relative="1" as="geometry">
            <mxPoint x="9" y="474" as="sourcePoint" />
            <mxPoint x="9" y="65" as="targetPoint" />
          </mxGeometry>
        </mxCell>
        <mxCell id="kjJfZWDyVKk-EB3Ob07S-13" value="User" style="shape=umlActor;verticalLabelPosition=bottom;verticalAlign=top;html=1;outlineConnect=0;" parent="kjJfZWDyVKk-EB3Ob07S-21" vertex="1">
          <mxGeometry width="18" height="39" as="geometry" />
        </mxCell>
        <mxCell id="mkdkeC1Thzjb7Dv0HHSO-6" value="" style="html=1;points=[[0,0,0,0,5],[0,1,0,0,-5],[1,0,0,0,5],[1,1,0,0,-5]];perimeter=orthogonalPerimeter;outlineConnect=0;targetShapes=umlLifeline;portConstraint=eastwest;newEdgeStyle={&quot;curved&quot;:0,&quot;rounded&quot;:0};" parent="1" vertex="1">
          <mxGeometry x="155" y="120" width="10" height="370" as="geometry" />
        </mxCell>
      </root>
    </mxGraphModel>
  </diagram>
  <diagram id="VCBc-rX5hFzYD21G0lE8" name="Get User">
    <mxGraphModel dx="1036" dy="654" grid="1" gridSize="10" guides="1" tooltips="1" connect="1" arrows="1" fold="1" page="1" pageScale="1" pageWidth="1654" pageHeight="1169" math="0" shadow="0">
      <root>
        <mxCell id="0" />
        <mxCell id="1" parent="0" />
        <mxCell id="70kj1kvguR-MJAAP0rIP-1" value="React App" style="shape=umlLifeline;perimeter=lifelinePerimeter;whiteSpace=wrap;html=1;container=1;dropTarget=0;collapsible=0;recursiveResize=0;outlineConnect=0;portConstraint=eastwest;newEdgeStyle={&quot;curved&quot;:0,&quot;rounded&quot;:0};" parent="1" vertex="1">
          <mxGeometry x="360" y="40" width="120" height="360" as="geometry" />
        </mxCell>
        <mxCell id="70kj1kvguR-MJAAP0rIP-2" value="" style="html=1;points=[[0,0,0,0,5],[0,1,0,0,-5],[1,0,0,0,5],[1,1,0,0,-5]];perimeter=orthogonalPerimeter;outlineConnect=0;targetShapes=umlLifeline;portConstraint=eastwest;newEdgeStyle={&quot;curved&quot;:0,&quot;rounded&quot;:0};" parent="70kj1kvguR-MJAAP0rIP-1" vertex="1">
          <mxGeometry x="55" y="80" width="10" height="270" as="geometry" />
        </mxCell>
        <mxCell id="70kj1kvguR-MJAAP0rIP-5" value="ExpressServer" style="shape=umlLifeline;perimeter=lifelinePerimeter;whiteSpace=wrap;html=1;container=1;dropTarget=0;collapsible=0;recursiveResize=0;outlineConnect=0;portConstraint=eastwest;newEdgeStyle={&quot;curved&quot;:0,&quot;rounded&quot;:0};" parent="1" vertex="1">
          <mxGeometry x="640" y="40" width="120" height="360" as="geometry" />
        </mxCell>
        <mxCell id="70kj1kvguR-MJAAP0rIP-6" value="" style="html=1;points=[[0,0,0,0,5],[0,1,0,0,-5],[1,0,0,0,5],[1,1,0,0,-5]];perimeter=orthogonalPerimeter;outlineConnect=0;targetShapes=umlLifeline;portConstraint=eastwest;newEdgeStyle={&quot;curved&quot;:0,&quot;rounded&quot;:0};" parent="70kj1kvguR-MJAAP0rIP-5" vertex="1">
          <mxGeometry x="55" y="80" width="10" height="270" as="geometry" />
        </mxCell>
        <mxCell id="70kj1kvguR-MJAAP0rIP-7" value="MongoDB" style="shape=umlLifeline;perimeter=lifelinePerimeter;whiteSpace=wrap;html=1;container=1;dropTarget=0;collapsible=0;recursiveResize=0;outlineConnect=0;portConstraint=eastwest;newEdgeStyle={&quot;curved&quot;:0,&quot;rounded&quot;:0};" parent="1" vertex="1">
          <mxGeometry x="950" y="40" width="120" height="360" as="geometry" />
        </mxCell>
        <mxCell id="70kj1kvguR-MJAAP0rIP-8" value="" style="html=1;points=[[0,0,0,0,5],[0,1,0,0,-5],[1,0,0,0,5],[1,1,0,0,-5]];perimeter=orthogonalPerimeter;outlineConnect=0;targetShapes=umlLifeline;portConstraint=eastwest;newEdgeStyle={&quot;curved&quot;:0,&quot;rounded&quot;:0};" parent="70kj1kvguR-MJAAP0rIP-7" vertex="1">
          <mxGeometry x="55" y="80" width="10" height="270" as="geometry" />
        </mxCell>
        <mxCell id="70kj1kvguR-MJAAP0rIP-9" value="" style="html=1;verticalAlign=bottom;endArrow=block;curved=0;rounded=0;" parent="1" edge="1">
          <mxGeometry width="80" relative="1" as="geometry">
            <mxPoint x="165" y="130" as="sourcePoint" />
            <mxPoint x="415" y="130" as="targetPoint" />
          </mxGeometry>
        </mxCell>
        <mxCell id="70kj1kvguR-MJAAP0rIP-10" value="" style="html=1;verticalAlign=bottom;endArrow=block;curved=0;rounded=0;" parent="1" edge="1">
          <mxGeometry width="80" relative="1" as="geometry">
            <mxPoint x="425" y="140" as="sourcePoint" />
            <mxPoint x="695" y="140" as="targetPoint" />
          </mxGeometry>
        </mxCell>
        <mxCell id="70kj1kvguR-MJAAP0rIP-11" value="" style="html=1;verticalAlign=bottom;endArrow=block;curved=0;rounded=0;" parent="1" edge="1">
          <mxGeometry width="80" relative="1" as="geometry">
            <mxPoint x="705" y="150" as="sourcePoint" />
            <mxPoint x="1005" y="150" as="targetPoint" />
          </mxGeometry>
        </mxCell>
        <mxCell id="70kj1kvguR-MJAAP0rIP-12" value="Success" style="shape=umlFrame;whiteSpace=wrap;html=1;pointerEvents=0;" parent="1" vertex="1">
          <mxGeometry x="90" y="280" width="970" height="80" as="geometry" />
        </mxCell>
        <mxCell id="70kj1kvguR-MJAAP0rIP-13" value="" style="html=1;verticalAlign=bottom;endArrow=open;dashed=1;endSize=8;curved=0;rounded=0;" parent="1" edge="1">
          <mxGeometry relative="1" as="geometry">
            <mxPoint x="1005" y="200" as="sourcePoint" />
            <mxPoint x="705" y="200" as="targetPoint" />
            <mxPoint as="offset" />
          </mxGeometry>
        </mxCell>
        <mxCell id="70kj1kvguR-MJAAP0rIP-14" value="" style="html=1;verticalAlign=bottom;endArrow=open;dashed=1;endSize=8;curved=0;rounded=0;" parent="1" edge="1">
          <mxGeometry relative="1" as="geometry">
            <mxPoint x="695" y="214.5" as="sourcePoint" />
            <mxPoint x="425" y="214.5" as="targetPoint" />
            <mxPoint as="offset" />
          </mxGeometry>
        </mxCell>
        <mxCell id="70kj1kvguR-MJAAP0rIP-15" value="" style="html=1;verticalAlign=bottom;endArrow=open;dashed=1;endSize=8;curved=0;rounded=0;" parent="1" edge="1">
          <mxGeometry relative="1" as="geometry">
            <mxPoint x="415" y="230" as="sourcePoint" />
            <mxPoint x="165" y="230" as="targetPoint" />
            <mxPoint as="offset" />
          </mxGeometry>
        </mxCell>
        <mxCell id="70kj1kvguR-MJAAP0rIP-16" value="Error" style="shape=umlFrame;whiteSpace=wrap;html=1;pointerEvents=0;" parent="1" vertex="1">
          <mxGeometry x="90" y="170" width="970" height="90" as="geometry" />
        </mxCell>
        <mxCell id="70kj1kvguR-MJAAP0rIP-17" value="" style="html=1;verticalAlign=bottom;endArrow=open;dashed=1;endSize=8;curved=0;rounded=0;" parent="1" edge="1">
          <mxGeometry relative="1" as="geometry">
            <mxPoint x="1000" y="310" as="sourcePoint" />
            <mxPoint x="705" y="310" as="targetPoint" />
            <mxPoint as="offset" />
          </mxGeometry>
        </mxCell>
        <mxCell id="70kj1kvguR-MJAAP0rIP-18" value="" style="html=1;verticalAlign=bottom;endArrow=open;dashed=1;endSize=8;curved=0;rounded=0;" parent="1" edge="1">
          <mxGeometry x="0.0038" relative="1" as="geometry">
            <mxPoint x="690" y="325" as="sourcePoint" />
            <mxPoint x="425" y="325" as="targetPoint" />
            <mxPoint as="offset" />
          </mxGeometry>
        </mxCell>
        <mxCell id="70kj1kvguR-MJAAP0rIP-19" value="" style="html=1;verticalAlign=bottom;endArrow=open;dashed=1;endSize=8;curved=0;rounded=0;" parent="1" edge="1">
          <mxGeometry x="0.0038" relative="1" as="geometry">
            <mxPoint x="415" y="340" as="sourcePoint" />
            <mxPoint x="165" y="340" as="targetPoint" />
            <mxPoint as="offset" />
          </mxGeometry>
        </mxCell>
        <mxCell id="wCMJwHmzkPfxmg7MYx_E-1" value="Send GET request for search user&amp;nbsp;" style="text;html=1;align=center;verticalAlign=middle;resizable=0;points=[];autosize=1;strokeColor=none;fillColor=none;" parent="1" vertex="1">
          <mxGeometry x="450" y="118" width="210" height="30" as="geometry" />
        </mxCell>
        <mxCell id="wCMJwHmzkPfxmg7MYx_E-2" value="Search DB using Mongoose DB" style="text;html=1;align=center;verticalAlign=middle;resizable=0;points=[];autosize=1;strokeColor=none;fillColor=none;" parent="1" vertex="1">
          <mxGeometry x="760" y="130" width="190" height="30" as="geometry" />
        </mxCell>
        <mxCell id="wCMJwHmzkPfxmg7MYx_E-3" value="Enter the name or user ID to search" style="text;html=1;align=center;verticalAlign=middle;resizable=0;points=[];autosize=1;strokeColor=none;fillColor=none;" parent="1" vertex="1">
          <mxGeometry x="180" y="108" width="210" height="30" as="geometry" />
        </mxCell>
        <mxCell id="wCMJwHmzkPfxmg7MYx_E-5" value="Return nothing" style="text;html=1;align=center;verticalAlign=middle;resizable=0;points=[];autosize=1;strokeColor=none;fillColor=none;" parent="1" vertex="1">
          <mxGeometry x="817" y="175" width="100" height="30" as="geometry" />
        </mxCell>
        <mxCell id="wCMJwHmzkPfxmg7MYx_E-7" value="Return 500 message" style="text;html=1;align=center;verticalAlign=middle;resizable=0;points=[];autosize=1;strokeColor=none;fillColor=none;" parent="1" vertex="1">
          <mxGeometry x="490" y="190" width="130" height="30" as="geometry" />
        </mxCell>
        <mxCell id="wCMJwHmzkPfxmg7MYx_E-8" value="Show message User not found" style="text;html=1;align=center;verticalAlign=middle;resizable=0;points=[];autosize=1;strokeColor=none;fillColor=none;" parent="1" vertex="1">
          <mxGeometry x="190" y="205" width="190" height="30" as="geometry" />
        </mxCell>
        <mxCell id="wCMJwHmzkPfxmg7MYx_E-9" value="Return User data" style="text;html=1;align=center;verticalAlign=middle;resizable=0;points=[];autosize=1;strokeColor=none;fillColor=none;" parent="1" vertex="1">
          <mxGeometry x="817" y="288" width="110" height="30" as="geometry" />
        </mxCell>
        <mxCell id="wCMJwHmzkPfxmg7MYx_E-10" value="Return user data" style="text;html=1;align=center;verticalAlign=middle;resizable=0;points=[];autosize=1;strokeColor=none;fillColor=none;" parent="1" vertex="1">
          <mxGeometry x="485" y="298" width="110" height="30" as="geometry" />
        </mxCell>
        <mxCell id="wCMJwHmzkPfxmg7MYx_E-11" value="Show user data" style="text;html=1;align=center;verticalAlign=middle;resizable=0;points=[];autosize=1;strokeColor=none;fillColor=none;" parent="1" vertex="1">
          <mxGeometry x="215" y="308" width="110" height="30" as="geometry" />
        </mxCell>
        <mxCell id="nWCfA-ogOjWE5Mx9GdAW-1" value="" style="group" parent="1" vertex="1" connectable="0">
          <mxGeometry x="151" y="40" width="18" height="360" as="geometry" />
        </mxCell>
        <mxCell id="nWCfA-ogOjWE5Mx9GdAW-3" value="User" style="shape=umlActor;verticalLabelPosition=bottom;verticalAlign=top;html=1;outlineConnect=0;" parent="nWCfA-ogOjWE5Mx9GdAW-1" vertex="1">
          <mxGeometry width="18" height="29.620253164556964" as="geometry" />
        </mxCell>
        <mxCell id="nWCfA-ogOjWE5Mx9GdAW-2" value="" style="endArrow=none;dashed=1;html=1;rounded=0;" parent="nWCfA-ogOjWE5Mx9GdAW-1" edge="1">
          <mxGeometry width="50" height="50" relative="1" as="geometry">
            <mxPoint x="9" y="360" as="sourcePoint" />
            <mxPoint x="9" y="49.36708860759494" as="targetPoint" />
          </mxGeometry>
        </mxCell>
        <mxCell id="70kj1kvguR-MJAAP0rIP-4" value="" style="html=1;points=[[0,0,0,0,5],[0,1,0,0,-5],[1,0,0,0,5],[1,1,0,0,-5]];perimeter=orthogonalPerimeter;outlineConnect=0;targetShapes=umlLifeline;portConstraint=eastwest;newEdgeStyle={&quot;curved&quot;:0,&quot;rounded&quot;:0};" parent="1" vertex="1">
          <mxGeometry x="155" y="120" width="10" height="270" as="geometry" />
        </mxCell>
      </root>
    </mxGraphModel>
  </diagram>
  <diagram id="vbw58_-sxPD5t3DXRFcV" name="Update profile">
    <mxGraphModel dx="1036" dy="654" grid="1" gridSize="10" guides="1" tooltips="1" connect="1" arrows="1" fold="1" page="1" pageScale="1" pageWidth="1654" pageHeight="1169" math="0" shadow="0">
      <root>
        <mxCell id="0" />
        <mxCell id="1" parent="0" />
        <mxCell id="_Nmsz24qoyPkyeklQdXp-1" value="React App" style="shape=umlLifeline;perimeter=lifelinePerimeter;whiteSpace=wrap;html=1;container=1;dropTarget=0;collapsible=0;recursiveResize=0;outlineConnect=0;portConstraint=eastwest;newEdgeStyle={&quot;curved&quot;:0,&quot;rounded&quot;:0};" parent="1" vertex="1">
          <mxGeometry x="360" y="40" width="120" height="680" as="geometry" />
        </mxCell>
        <mxCell id="_Nmsz24qoyPkyeklQdXp-2" value="" style="html=1;points=[[0,0,0,0,5],[0,1,0,0,-5],[1,0,0,0,5],[1,1,0,0,-5]];perimeter=orthogonalPerimeter;outlineConnect=0;targetShapes=umlLifeline;portConstraint=eastwest;newEdgeStyle={&quot;curved&quot;:0,&quot;rounded&quot;:0};" parent="_Nmsz24qoyPkyeklQdXp-1" vertex="1">
          <mxGeometry x="55" y="80" width="10" height="580" as="geometry" />
        </mxCell>
        <mxCell id="_Nmsz24qoyPkyeklQdXp-5" value="ExpressServer" style="shape=umlLifeline;perimeter=lifelinePerimeter;whiteSpace=wrap;html=1;container=1;dropTarget=0;collapsible=0;recursiveResize=0;outlineConnect=0;portConstraint=eastwest;newEdgeStyle={&quot;curved&quot;:0,&quot;rounded&quot;:0};" parent="1" vertex="1">
          <mxGeometry x="640" y="40" width="120" height="680" as="geometry" />
        </mxCell>
        <mxCell id="_Nmsz24qoyPkyeklQdXp-6" value="" style="html=1;points=[[0,0,0,0,5],[0,1,0,0,-5],[1,0,0,0,5],[1,1,0,0,-5]];perimeter=orthogonalPerimeter;outlineConnect=0;targetShapes=umlLifeline;portConstraint=eastwest;newEdgeStyle={&quot;curved&quot;:0,&quot;rounded&quot;:0};" parent="_Nmsz24qoyPkyeklQdXp-5" vertex="1">
          <mxGeometry x="55" y="80" width="10" height="570" as="geometry" />
        </mxCell>
        <mxCell id="_Nmsz24qoyPkyeklQdXp-7" value="MongoDB" style="shape=umlLifeline;perimeter=lifelinePerimeter;whiteSpace=wrap;html=1;container=1;dropTarget=0;collapsible=0;recursiveResize=0;outlineConnect=0;portConstraint=eastwest;newEdgeStyle={&quot;curved&quot;:0,&quot;rounded&quot;:0};" parent="1" vertex="1">
          <mxGeometry x="950" y="40" width="120" height="680" as="geometry" />
        </mxCell>
        <mxCell id="_Nmsz24qoyPkyeklQdXp-8" value="" style="html=1;points=[[0,0,0,0,5],[0,1,0,0,-5],[1,0,0,0,5],[1,1,0,0,-5]];perimeter=orthogonalPerimeter;outlineConnect=0;targetShapes=umlLifeline;portConstraint=eastwest;newEdgeStyle={&quot;curved&quot;:0,&quot;rounded&quot;:0};" parent="_Nmsz24qoyPkyeklQdXp-7" vertex="1">
          <mxGeometry x="55" y="80" width="10" height="570" as="geometry" />
        </mxCell>
        <mxCell id="_Nmsz24qoyPkyeklQdXp-9" value="" style="html=1;verticalAlign=bottom;endArrow=block;curved=0;rounded=0;" parent="1" source="_Nmsz24qoyPkyeklQdXp-4" edge="1">
          <mxGeometry width="80" relative="1" as="geometry">
            <mxPoint x="160" y="130" as="sourcePoint" />
            <mxPoint x="410" y="130" as="targetPoint" />
          </mxGeometry>
        </mxCell>
        <mxCell id="_Nmsz24qoyPkyeklQdXp-10" value="" style="html=1;verticalAlign=bottom;endArrow=block;curved=0;rounded=0;" parent="1" edge="1">
          <mxGeometry width="80" relative="1" as="geometry">
            <mxPoint x="425" y="140" as="sourcePoint" />
            <mxPoint x="695" y="140" as="targetPoint" />
          </mxGeometry>
        </mxCell>
        <mxCell id="_Nmsz24qoyPkyeklQdXp-11" value="" style="html=1;verticalAlign=bottom;endArrow=block;curved=0;rounded=0;" parent="1" edge="1">
          <mxGeometry width="80" relative="1" as="geometry">
            <mxPoint x="705" y="150" as="sourcePoint" />
            <mxPoint x="1005" y="150" as="targetPoint" />
          </mxGeometry>
        </mxCell>
        <mxCell id="_Nmsz24qoyPkyeklQdXp-12" value="Success" style="shape=umlFrame;whiteSpace=wrap;html=1;pointerEvents=0;" parent="1" vertex="1">
          <mxGeometry x="90" y="390" width="970" height="80" as="geometry" />
        </mxCell>
        <mxCell id="_Nmsz24qoyPkyeklQdXp-13" value="" style="html=1;verticalAlign=bottom;endArrow=open;dashed=1;endSize=8;curved=0;rounded=0;" parent="1" edge="1">
          <mxGeometry relative="1" as="geometry">
            <mxPoint x="1005" y="200" as="sourcePoint" />
            <mxPoint x="705" y="200" as="targetPoint" />
            <mxPoint as="offset" />
          </mxGeometry>
        </mxCell>
        <mxCell id="_Nmsz24qoyPkyeklQdXp-14" value="" style="html=1;verticalAlign=bottom;endArrow=open;dashed=1;endSize=8;curved=0;rounded=0;" parent="1" edge="1">
          <mxGeometry relative="1" as="geometry">
            <mxPoint x="695" y="214.5" as="sourcePoint" />
            <mxPoint x="425" y="214.5" as="targetPoint" />
            <mxPoint as="offset" />
          </mxGeometry>
        </mxCell>
        <mxCell id="_Nmsz24qoyPkyeklQdXp-15" value="" style="html=1;verticalAlign=bottom;endArrow=open;dashed=1;endSize=8;curved=0;rounded=0;" parent="1" edge="1">
          <mxGeometry relative="1" as="geometry">
            <mxPoint x="415" y="230" as="sourcePoint" />
            <mxPoint x="165" y="230" as="targetPoint" />
            <mxPoint as="offset" />
          </mxGeometry>
        </mxCell>
        <mxCell id="_Nmsz24qoyPkyeklQdXp-16" value="Error" style="shape=umlFrame;whiteSpace=wrap;html=1;pointerEvents=0;" parent="1" vertex="1">
          <mxGeometry x="90" y="170" width="970" height="90" as="geometry" />
        </mxCell>
        <mxCell id="_Nmsz24qoyPkyeklQdXp-17" value="" style="html=1;verticalAlign=bottom;endArrow=open;dashed=1;endSize=8;curved=0;rounded=0;" parent="1" edge="1">
          <mxGeometry relative="1" as="geometry">
            <mxPoint x="1000" y="420" as="sourcePoint" />
            <mxPoint x="705" y="420" as="targetPoint" />
            <mxPoint as="offset" />
          </mxGeometry>
        </mxCell>
        <mxCell id="_Nmsz24qoyPkyeklQdXp-18" value="" style="html=1;verticalAlign=bottom;endArrow=open;dashed=1;endSize=8;curved=0;rounded=0;" parent="1" edge="1">
          <mxGeometry x="0.0038" relative="1" as="geometry">
            <mxPoint x="690" y="435" as="sourcePoint" />
            <mxPoint x="425" y="435" as="targetPoint" />
            <mxPoint as="offset" />
          </mxGeometry>
        </mxCell>
        <mxCell id="_Nmsz24qoyPkyeklQdXp-19" value="" style="html=1;verticalAlign=bottom;endArrow=open;dashed=1;endSize=8;curved=0;rounded=0;" parent="1" edge="1">
          <mxGeometry x="0.0038" relative="1" as="geometry">
            <mxPoint x="415" y="450" as="sourcePoint" />
            <mxPoint x="165" y="450" as="targetPoint" />
            <mxPoint as="offset" />
          </mxGeometry>
        </mxCell>
        <mxCell id="_Nmsz24qoyPkyeklQdXp-20" value="" style="html=1;verticalAlign=bottom;endArrow=open;dashed=1;endSize=8;curved=0;rounded=0;" parent="1" edge="1">
          <mxGeometry relative="1" as="geometry">
            <mxPoint x="1005" y="310" as="sourcePoint" />
            <mxPoint x="705" y="310" as="targetPoint" />
            <mxPoint as="offset" />
          </mxGeometry>
        </mxCell>
        <mxCell id="_Nmsz24qoyPkyeklQdXp-21" value="" style="html=1;verticalAlign=bottom;endArrow=open;dashed=1;endSize=8;curved=0;rounded=0;" parent="1" edge="1">
          <mxGeometry relative="1" as="geometry">
            <mxPoint x="695" y="324.5" as="sourcePoint" />
            <mxPoint x="425" y="324.5" as="targetPoint" />
            <mxPoint as="offset" />
          </mxGeometry>
        </mxCell>
        <mxCell id="_Nmsz24qoyPkyeklQdXp-22" value="" style="html=1;verticalAlign=bottom;endArrow=open;dashed=1;endSize=8;curved=0;rounded=0;" parent="1" edge="1">
          <mxGeometry relative="1" as="geometry">
            <mxPoint x="415" y="340" as="sourcePoint" />
            <mxPoint x="165" y="340" as="targetPoint" />
            <mxPoint as="offset" />
          </mxGeometry>
        </mxCell>
        <mxCell id="_Nmsz24qoyPkyeklQdXp-23" value="Error" style="shape=umlFrame;whiteSpace=wrap;html=1;pointerEvents=0;" parent="1" vertex="1">
          <mxGeometry x="90" y="280" width="970" height="90" as="geometry" />
        </mxCell>
        <mxCell id="81e7g45yMVV5qbnHAmbN-1" value="Search for the user id&amp;nbsp;" style="text;html=1;align=center;verticalAlign=middle;resizable=0;points=[];autosize=1;strokeColor=none;fillColor=none;" parent="1" vertex="1">
          <mxGeometry x="220" y="100" width="140" height="30" as="geometry" />
        </mxCell>
        <mxCell id="81e7g45yMVV5qbnHAmbN-2" value="Send GET request for search User" style="text;html=1;align=center;verticalAlign=middle;resizable=0;points=[];autosize=1;strokeColor=none;fillColor=none;" parent="1" vertex="1">
          <mxGeometry x="460" y="118" width="210" height="30" as="geometry" />
        </mxCell>
        <mxCell id="81e7g45yMVV5qbnHAmbN-3" value="Search using MongooseDB" style="text;html=1;align=center;verticalAlign=middle;resizable=0;points=[];autosize=1;strokeColor=none;fillColor=none;" parent="1" vertex="1">
          <mxGeometry x="770" y="130" width="170" height="30" as="geometry" />
        </mxCell>
        <mxCell id="81e7g45yMVV5qbnHAmbN-4" value="User not found" style="text;html=1;align=center;verticalAlign=middle;resizable=0;points=[];autosize=1;strokeColor=none;fillColor=none;" parent="1" vertex="1">
          <mxGeometry x="810" y="178" width="100" height="30" as="geometry" />
        </mxCell>
        <mxCell id="JlN6lTPLt_rXRXps6mRs-1" value="Return 400 message" style="text;html=1;align=center;verticalAlign=middle;resizable=0;points=[];autosize=1;strokeColor=none;fillColor=none;" parent="1" vertex="1">
          <mxGeometry x="490" y="190" width="130" height="30" as="geometry" />
        </mxCell>
        <mxCell id="_aymsFWibI5NVflbn7dY-1" value="&lt;span style=&quot;color: rgb(0, 0, 0); font-family: Helvetica; font-size: 12px; font-style: normal; font-variant-ligatures: normal; font-variant-caps: normal; font-weight: 400; letter-spacing: normal; orphans: 2; text-align: center; text-indent: 0px; text-transform: none; widows: 2; word-spacing: 0px; -webkit-text-stroke-width: 0px; white-space: nowrap; background-color: rgb(251, 251, 251); text-decoration-thickness: initial; text-decoration-style: initial; text-decoration-color: initial; display: inline !important; float: none;&quot;&gt;Show message &quot;User not found&quot;&lt;/span&gt;" style="text;whiteSpace=wrap;html=1;" parent="1" vertex="1">
          <mxGeometry x="210" y="208" width="200" height="40" as="geometry" />
        </mxCell>
        <mxCell id="_aymsFWibI5NVflbn7dY-2" value="User does not match" style="text;html=1;align=center;verticalAlign=middle;resizable=0;points=[];autosize=1;strokeColor=none;fillColor=none;" parent="1" vertex="1">
          <mxGeometry x="790" y="280" width="130" height="30" as="geometry" />
        </mxCell>
        <mxCell id="_aymsFWibI5NVflbn7dY-3" value="&lt;span style=&quot;color: rgb(0, 0, 0); font-family: Helvetica; font-size: 12px; font-style: normal; font-variant-ligatures: normal; font-variant-caps: normal; font-weight: 400; letter-spacing: normal; orphans: 2; text-align: center; text-indent: 0px; text-transform: none; widows: 2; word-spacing: 0px; -webkit-text-stroke-width: 0px; white-space: nowrap; background-color: rgb(251, 251, 251); text-decoration-thickness: initial; text-decoration-style: initial; text-decoration-color: initial; display: inline !important; float: none;&quot;&gt;Return 400 message&lt;/span&gt;" style="text;whiteSpace=wrap;html=1;" parent="1" vertex="1">
          <mxGeometry x="500" y="300" width="140" height="40" as="geometry" />
        </mxCell>
        <mxCell id="_aymsFWibI5NVflbn7dY-4" value="&lt;span style=&quot;color: rgb(0, 0, 0); font-family: Helvetica; font-size: 12px; font-style: normal; font-variant-ligatures: normal; font-variant-caps: normal; font-weight: 400; letter-spacing: normal; orphans: 2; text-align: center; text-indent: 0px; text-transform: none; widows: 2; word-spacing: 0px; -webkit-text-stroke-width: 0px; white-space: nowrap; background-color: rgb(251, 251, 251); text-decoration-thickness: initial; text-decoration-style: initial; text-decoration-color: initial; display: inline !important; float: none;&quot;&gt;Show message &quot;You can&#39;t update other user&quot;&lt;/span&gt;" style="text;whiteSpace=wrap;html=1;" parent="1" vertex="1">
          <mxGeometry x="170" y="310" width="130" height="40" as="geometry" />
        </mxCell>
        <mxCell id="aJ_uKyIMtnOu50OWrEuA-1" value="Return User data" style="text;html=1;align=center;verticalAlign=middle;resizable=0;points=[];autosize=1;strokeColor=none;fillColor=none;" parent="1" vertex="1">
          <mxGeometry x="800" y="400" width="110" height="30" as="geometry" />
        </mxCell>
        <mxCell id="RFS4wvJKG-pdR5CPGKdz-1" value="Return user data" style="text;html=1;align=center;verticalAlign=middle;resizable=0;points=[];autosize=1;strokeColor=none;fillColor=none;" parent="1" vertex="1">
          <mxGeometry x="500" y="400" width="110" height="30" as="geometry" />
        </mxCell>
        <mxCell id="kCbw-4jl1rDFVlhi7kds-1" value="Show user data" style="text;html=1;align=center;verticalAlign=middle;resizable=0;points=[];autosize=1;strokeColor=none;fillColor=none;" parent="1" vertex="1">
          <mxGeometry x="230" y="420" width="110" height="30" as="geometry" />
        </mxCell>
        <mxCell id="yQPBnmA1H7McmvUqSmMC-1" value="" style="html=1;verticalAlign=bottom;endArrow=block;curved=0;rounded=0;" parent="1" edge="1">
          <mxGeometry width="80" relative="1" as="geometry">
            <mxPoint x="167.5" y="520" as="sourcePoint" />
            <mxPoint x="412.5" y="520" as="targetPoint" />
          </mxGeometry>
        </mxCell>
        <mxCell id="yQPBnmA1H7McmvUqSmMC-3" value="" style="html=1;verticalAlign=bottom;endArrow=block;curved=0;rounded=0;" parent="1" edge="1">
          <mxGeometry width="80" relative="1" as="geometry">
            <mxPoint x="430" y="540" as="sourcePoint" />
            <mxPoint x="690" y="540" as="targetPoint" />
          </mxGeometry>
        </mxCell>
        <mxCell id="yQPBnmA1H7McmvUqSmMC-5" value="" style="html=1;verticalAlign=bottom;endArrow=block;curved=0;rounded=0;" parent="1" edge="1">
          <mxGeometry width="80" relative="1" as="geometry">
            <mxPoint x="705" y="560" as="sourcePoint" />
            <mxPoint x="1005" y="560" as="targetPoint" />
          </mxGeometry>
        </mxCell>
        <mxCell id="yQPBnmA1H7McmvUqSmMC-6" value="Enter editing information, click Save" style="text;whiteSpace=wrap;" parent="1" vertex="1">
          <mxGeometry x="190" y="490" width="220" height="40" as="geometry" />
        </mxCell>
        <mxCell id="yQPBnmA1H7McmvUqSmMC-7" value="&lt;span style=&quot;color: rgb(0, 0, 0); font-family: Helvetica; font-size: 12px; font-style: normal; font-variant-ligatures: normal; font-variant-caps: normal; font-weight: 400; letter-spacing: normal; orphans: 2; text-align: center; text-indent: 0px; text-transform: none; widows: 2; word-spacing: 0px; -webkit-text-stroke-width: 0px; white-space: nowrap; background-color: rgb(251, 251, 251); text-decoration-thickness: initial; text-decoration-style: initial; text-decoration-color: initial; display: inline !important; float: none;&quot;&gt;Send PUT request for update User&lt;/span&gt;" style="text;whiteSpace=wrap;html=1;" parent="1" vertex="1">
          <mxGeometry x="460" y="510" width="220" height="40" as="geometry" />
        </mxCell>
        <mxCell id="yQPBnmA1H7McmvUqSmMC-8" value="Update using MongooseDB" style="text;html=1;align=center;verticalAlign=middle;resizable=0;points=[];autosize=1;strokeColor=none;fillColor=none;" parent="1" vertex="1">
          <mxGeometry x="770" y="530" width="170" height="30" as="geometry" />
        </mxCell>
        <mxCell id="yQPBnmA1H7McmvUqSmMC-9" value="Success" style="shape=umlFrame;whiteSpace=wrap;html=1;pointerEvents=0;" parent="1" vertex="1">
          <mxGeometry x="80" y="585" width="970" height="80" as="geometry" />
        </mxCell>
        <mxCell id="yQPBnmA1H7McmvUqSmMC-10" value="" style="html=1;verticalAlign=bottom;endArrow=open;dashed=1;endSize=8;curved=0;rounded=0;" parent="1" edge="1">
          <mxGeometry relative="1" as="geometry">
            <mxPoint x="1002.5" y="615" as="sourcePoint" />
            <mxPoint x="707.5" y="615" as="targetPoint" />
            <mxPoint as="offset" />
          </mxGeometry>
        </mxCell>
        <mxCell id="yQPBnmA1H7McmvUqSmMC-11" value="" style="html=1;verticalAlign=bottom;endArrow=open;dashed=1;endSize=8;curved=0;rounded=0;" parent="1" edge="1">
          <mxGeometry x="0.0038" relative="1" as="geometry">
            <mxPoint x="692.5" y="625" as="sourcePoint" />
            <mxPoint x="427.5" y="625" as="targetPoint" />
            <mxPoint as="offset" />
          </mxGeometry>
        </mxCell>
        <mxCell id="yQPBnmA1H7McmvUqSmMC-12" value="" style="html=1;verticalAlign=bottom;endArrow=open;dashed=1;endSize=8;curved=0;rounded=0;" parent="1" edge="1">
          <mxGeometry x="0.0038" relative="1" as="geometry">
            <mxPoint x="415" y="645" as="sourcePoint" />
            <mxPoint x="165" y="645" as="targetPoint" />
            <mxPoint as="offset" />
          </mxGeometry>
        </mxCell>
        <mxCell id="yQPBnmA1H7McmvUqSmMC-20" value="Update User data" style="text;html=1;align=center;verticalAlign=middle;resizable=0;points=[];autosize=1;strokeColor=none;fillColor=none;" parent="1" vertex="1">
          <mxGeometry x="785" y="595" width="120" height="30" as="geometry" />
        </mxCell>
        <mxCell id="yQPBnmA1H7McmvUqSmMC-21" value="Return updated user data" style="text;html=1;align=center;verticalAlign=middle;resizable=0;points=[];autosize=1;strokeColor=none;fillColor=none;" parent="1" vertex="1">
          <mxGeometry x="465" y="605" width="160" height="30" as="geometry" />
        </mxCell>
        <mxCell id="yQPBnmA1H7McmvUqSmMC-22" value="Show updated user data&amp;nbsp;" style="text;html=1;align=center;verticalAlign=middle;resizable=0;points=[];autosize=1;strokeColor=none;fillColor=none;" parent="1" vertex="1">
          <mxGeometry x="195" y="615" width="160" height="30" as="geometry" />
        </mxCell>
        <mxCell id="Un1YDzErKJOHZb1Lffo5-1" value="" style="group" parent="1" vertex="1" connectable="0">
          <mxGeometry x="151" y="20" width="18" height="700" as="geometry" />
        </mxCell>
        <mxCell id="Un1YDzErKJOHZb1Lffo5-2" value="User" style="shape=umlActor;verticalLabelPosition=bottom;verticalAlign=top;html=1;outlineConnect=0;" parent="Un1YDzErKJOHZb1Lffo5-1" vertex="1">
          <mxGeometry y="19.71830985915493" width="18" height="37.87887323943662" as="geometry" />
        </mxCell>
        <mxCell id="Un1YDzErKJOHZb1Lffo5-3" value="" style="endArrow=none;dashed=1;html=1;rounded=0;" parent="Un1YDzErKJOHZb1Lffo5-1" edge="1">
          <mxGeometry width="50" height="50" relative="1" as="geometry">
            <mxPoint x="9" y="700" as="sourcePoint" />
            <mxPoint x="9" y="95.99156118143462" as="targetPoint" />
          </mxGeometry>
        </mxCell>
        <mxCell id="_Nmsz24qoyPkyeklQdXp-4" value="" style="html=1;points=[[0,0,0,0,5],[0,1,0,0,-5],[1,0,0,0,5],[1,1,0,0,-5]];perimeter=orthogonalPerimeter;outlineConnect=0;targetShapes=umlLifeline;portConstraint=eastwest;newEdgeStyle={&quot;curved&quot;:0,&quot;rounded&quot;:0};" parent="1" vertex="1">
          <mxGeometry x="155" y="120" width="10" height="580" as="geometry" />
        </mxCell>
      </root>
    </mxGraphModel>
  </diagram>
</mxfile>
